Dragons.Riders.of.Berk.S01E05.WEB-DL.x264-h65.mp4


Enjoy and seed it, buddies!

"-h65", a new name for an old friend of yours!
Yeah, baby!
@helder1965

------------------------------------------

General
Format                                   : MPEG-4
Format profile                           : Base Media
Codec ID                                 : isom
File size                                : 185 MiB
Duration                                 : 22mn 35s
Overall bit rate mode                    : Variable
Overall bit rate                         : 1 146 Kbps

Video
ID                                       : 1
Format                                   : AVC
Format/Info                              : Advanced Video Codec
Format profile                           : High 10@L3.1
Format settings, CABAC                   : Yes
Format settings, ReFrames                : 2 frames
Codec ID                                 : avc1
Codec ID/Info                            : Advanced Video Coding
Duration                                 : 22mn 35s
Bit rate                                 : 1 003 Kbps
Maximum bit rate                         : 3 998 Kbps
Width                                    : 720 pixels
Height                                   : 400 pixels
Display aspect ratio                     : 16:9
Frame rate mode                          : Constant
Frame rate                               : 23.976 fps
Color space                              : YUV
Chroma subsampling                       : 4:2:0
Bit depth                                : 10 bits
Scan type                                : Progressive
Bits/(Pixel*Frame)                       : 0.145
Stream size                              : 162 MiB (88%)
Writing library                          : x264 core 125 r2208 d9d2288

Audio
ID                                       : 2
Format                                   : AAC
Format/Info                              : Advanced Audio Codec
Format profile                           : HE-AAC / LC
Codec ID                                 : 40
Duration                                 : 22mn 35s
Bit rate mode                            : Variable
Bit rate                                 : 139 Kbps
Maximum bit rate                         : 149 Kbps
Channel(s)                               : 2 channels
Channel positions                        : Front: L R
Sampling rate                            : 48.0 KHz / 24.0 KHz
Compression mode                         : Lossy
Stream size                              : 22.5 MiB (12%)